<svg width="400" height="400" viewBox="0 0 400 400" fill="none" xmlns="http://www.w3.org/2000/svg">
<rect width="400" height="400" rx="96" fill="#F9F9F6"/>
<path d="M302.197 52.4406C300.055 52.676 296.878 53.029 295.137 53.2172C293.395 53.4055 290.006 53.8056 287.606 54.0644C280.052 54.8881 276.733 55.2647 273.956 55.5941C272.474 55.7824 270.45 55.9942 269.485 56.0648C268.52 56.1354 266.567 56.3472 265.131 56.5355C263.719 56.7237 260.425 57.0767 257.836 57.3592C255.247 57.618 251.858 57.9946 250.305 58.1828C248.728 58.3711 247.081 58.5359 246.61 58.5359C245.222 58.5359 245.175 58.7712 245.598 62.7013C246.257 69.0789 246.446 70.6557 246.54 71.0087C246.61 71.197 246.563 71.5029 246.446 71.6912C246.257 71.9736 245.81 71.903 243.669 71.2676C231.455 67.5728 224.347 66.1843 211.71 64.9841C206.627 64.4899 195.636 64.4428 190.883 64.8664C183.14 65.5489 176.433 66.4902 171.467 67.5728C170.573 67.761 169.02 68.0905 168.055 68.3023C167.09 68.5141 165.349 68.9613 164.172 69.2907C163.019 69.6202 161.748 69.9732 161.348 70.0673C160.242 70.3733 155.394 71.8794 153.582 72.5148C143.203 76.092 130.26 82.6343 121.576 88.6354C120.164 89.6238 118.822 90.5181 118.611 90.6593C117.646 91.2477 112.751 94.9895 110.774 96.6604C110.233 97.1075 109.197 97.9547 108.515 98.5431C102.114 103.838 94.4886 111.863 88.3699 119.676C87.7345 120.5 87.1226 121.347 86.9814 121.583C86.8637 121.794 86.2518 122.594 85.6635 123.371C84.3456 125.089 79.8507 131.937 78.3916 134.479C74.6497 140.951 71.4962 147.399 69.1193 153.377C68.3663 155.259 67.6132 157.142 67.4249 157.566C67.2366 157.989 67.0954 158.436 67.0954 158.577C67.0954 158.719 66.9542 159.166 66.766 159.566C66.5777 159.989 65.9894 161.755 65.4481 163.496C64.9068 165.238 64.3655 166.932 64.2714 167.261C63.9655 168.109 62.3887 174.392 62.0122 176.204C60.8826 181.57 60.2236 185.712 59.8 190.089C59.6588 191.572 59.4235 193.478 59.2823 194.325C58.8351 196.867 58.9528 216.164 59.3999 219.741C59.6117 221.365 59.9412 224.048 60.153 225.743C60.3648 227.413 60.6237 229.273 60.7413 229.861C60.859 230.449 61.0708 231.602 61.212 232.45C62.6711 240.757 66.4365 253.606 69.1193 259.443C69.2841 259.843 69.4488 260.29 69.4488 260.455C69.4488 260.619 69.59 261.02 69.7783 261.349C69.9665 261.702 70.6726 263.208 71.3315 264.691C72.8612 268.056 76.7678 275.681 77.8268 277.352C78.2739 278.034 78.6269 278.646 78.6269 278.717C78.6269 278.787 78.9564 279.305 79.3329 279.87C79.733 280.435 80.039 280.953 80.039 281.023C80.039 281.094 80.6273 282.012 81.3333 283.071C82.0393 284.13 82.6277 285.024 82.6277 285.071C82.6277 285.448 88.817 293.731 91.2174 296.555C91.9941 297.473 93.0531 298.744 93.5708 299.403C94.8416 301.027 104.914 311.099 107.22 313.052C110.115 315.5 110.209 315.571 111.456 316.606C112.845 317.759 118.352 321.901 118.917 322.231C119.128 322.348 120.823 323.478 122.682 324.749C129.06 329.055 135.508 332.585 143.58 336.186C145.674 337.104 149.204 338.587 149.346 338.587C149.44 338.587 149.84 338.751 150.24 338.916C150.664 339.104 151.675 339.481 152.523 339.763C153.37 340.022 154.264 340.352 154.523 340.469C154.782 340.61 156.217 341.081 157.7 341.552C168.031 344.752 177.892 346.706 187.988 347.576C192.012 347.929 209.192 347.929 213.24 347.576C220.559 346.941 229.078 345.482 236.185 343.646C240.397 342.54 241.009 342.375 241.268 342.211C241.409 342.14 242.068 341.928 242.727 341.764C243.41 341.599 245.434 340.916 247.246 340.281C249.058 339.622 251.011 338.916 251.599 338.728C252.188 338.516 252.87 338.234 253.129 338.116C253.388 337.998 254.282 337.622 255.129 337.292C257.506 336.351 267.767 331.362 269.72 330.209C270.309 329.856 271.109 329.385 271.532 329.15C271.933 328.914 272.709 328.444 273.25 328.114C273.792 327.761 274.38 327.549 274.545 327.596C274.686 327.667 274.898 328.232 274.968 328.867C275.368 331.785 276.122 338.469 276.31 340.681C276.663 344.47 276.992 346.894 277.298 347.459L277.557 348H309.422H341.263V347.318C341.263 346.941 341.121 346.588 340.933 346.517C340.768 346.447 340.51 345.976 340.368 345.482C340.227 344.988 339.968 344.164 339.757 343.646C339.192 342.14 337.803 338.304 336.391 334.35C335.685 332.35 334.909 330.114 334.65 329.408C334.391 328.702 334.085 327.785 333.967 327.408C333.638 326.278 332.861 323.925 332.602 323.29C332.461 322.96 331.92 321.266 331.379 319.524C330.837 317.783 330.249 315.971 330.061 315.524C329.896 315.076 329.378 313.382 328.908 311.758C328.437 310.134 327.896 308.346 327.707 307.757C327.543 307.169 327.001 305.428 326.554 303.874C326.107 302.321 325.519 300.368 325.26 299.521C324.977 298.673 324.342 296.391 323.848 294.461C323.33 292.508 322.648 289.966 322.318 288.813C321.989 287.636 321.636 286.271 321.518 285.753C321.283 284.671 319.941 279.305 319.612 278.105C319.471 277.658 318.906 275.21 318.317 272.692C317.729 270.174 317.094 267.468 316.905 266.691C316.717 265.915 316.411 264.479 316.199 263.514C315.988 262.549 315.611 260.855 315.376 259.749C314.552 255.936 313.258 249.394 312.552 245.511C312.316 244.217 311.963 242.193 311.728 241.039C310.175 232.567 307.774 216.588 306.904 209.034C306.762 207.857 306.503 205.598 306.315 203.974C306.127 202.35 305.821 199.714 305.609 198.091C305.421 196.467 305.209 194.255 305.139 193.148C305.068 192.042 304.856 189.548 304.668 187.618C304.127 182.017 303.632 175.404 303.491 171.968C303.256 166.014 303.115 164.673 302.667 164.437C302.267 164.226 300.761 164.343 296.313 164.908C295.349 165.026 293.819 165.19 292.901 165.261C292.007 165.332 289.983 165.543 288.43 165.732C283.064 166.367 279.487 166.791 278.192 166.885C276.145 167.05 264.119 168.415 262.307 168.673C260.307 168.956 253.317 169.78 249.952 170.085C248.587 170.227 246.257 170.486 244.775 170.65C243.292 170.839 240.586 171.144 238.774 171.356C236.961 171.545 233.784 171.898 231.713 172.133C229.643 172.368 227.736 172.533 227.477 172.486C227.219 172.462 226.701 172.133 226.301 171.756C225.501 170.98 222.041 168.509 220.653 167.709C213.828 163.778 207.427 161.755 199.708 161.143C193.824 160.648 187.4 161.472 181.351 163.472C179.445 164.108 178.01 164.626 177.515 164.885C177.304 165.002 176.127 165.591 174.903 166.202C173.679 166.791 172.22 167.614 171.679 167.991C171.138 168.367 170.597 168.673 170.526 168.673C170.079 168.673 165.043 172.862 162.972 174.933C158.453 179.475 155.7 183.594 152.805 190.089C150.499 195.29 149.181 202.374 149.322 209.034C149.369 211.222 149.463 213.293 149.534 213.623C149.604 213.952 149.769 215.011 149.91 215.976C150.452 219.859 152.099 225.013 154.099 229.037C157.512 235.909 163.136 242.428 169.467 246.829C172.032 248.594 176.221 250.9 178.292 251.653C181.069 252.689 184.058 253.677 184.881 253.842C185.399 253.959 186.576 254.218 187.47 254.407C189.988 254.948 191.777 255.066 196.46 255.042C201.073 255.018 202.579 254.924 204.414 254.571C211.545 253.23 217.005 251.041 222.771 247.205C225.783 245.205 229.337 241.957 232.608 238.215C233.526 237.18 234.42 236.239 234.608 236.121C234.796 236.027 235.479 235.886 236.138 235.839C236.773 235.791 240.068 235.438 243.457 235.062C246.846 234.662 250.234 234.285 251.011 234.215C251.788 234.144 254.659 233.815 257.365 233.485C260.095 233.156 263.39 232.803 264.708 232.685C266.002 232.567 267.626 232.403 268.285 232.308C269.414 232.167 269.485 232.191 269.485 232.661C269.485 232.944 269.391 233.344 269.273 233.579C269.156 233.791 268.661 234.991 268.167 236.215C266.99 239.274 264.308 244.781 262.519 247.747C259.342 253.112 255.694 257.748 251.011 262.479C247.246 266.244 244.869 268.268 240.821 271.163C237.338 273.61 235.361 274.81 231.172 276.928C228.089 278.482 226.983 278.976 224.889 279.799C224.371 280.011 223.43 280.388 222.771 280.647C220.488 281.564 215.922 282.835 211.239 283.871C204.226 285.4 193.871 285.706 186.082 284.6C183.634 284.247 181.563 283.918 181.446 283.847C181.351 283.8 180.645 283.635 179.892 283.494C179.139 283.353 178.01 283.094 177.351 282.906C170.597 280.976 166.243 279.329 161.583 276.928C158.9 275.54 157.888 274.975 155.935 273.798C154.429 272.881 149.722 269.539 147.816 268.009C140.826 262.432 134.025 254.524 129.601 246.805C128.095 244.169 125.177 237.957 124.212 235.391C124.023 234.874 123.647 233.862 123.388 233.156C121.858 229.131 120.446 222.871 119.67 216.682C119.223 213.199 119.105 205.574 119.411 201.856C120.329 190.913 124.118 178.84 129.436 169.897C129.836 169.215 130.166 168.603 130.166 168.532C130.166 168.485 130.778 167.497 131.507 166.367C137.085 157.801 144.262 150.435 152.829 144.457C153.958 143.681 154.947 143.022 155.017 143.022C155.088 143.022 155.441 142.833 155.77 142.575C156.9 141.798 160.665 139.703 162.877 138.621C165.09 137.585 169.49 135.726 169.82 135.726C169.938 135.726 170.338 135.562 170.691 135.397C171.467 134.997 176.598 133.467 178.833 132.973C180.292 132.667 182.081 132.337 185.47 131.749C186.176 131.631 188.694 131.396 191.024 131.231C198.343 130.737 207.286 131.584 214.534 133.491C220.653 135.114 220.441 135.044 226.842 137.515C229.195 138.433 233.22 140.48 236.538 142.457C241.88 145.657 246.469 149.376 250.093 153.424C251.482 154.977 251.199 154.93 255.365 154.436C256.989 154.224 259.318 153.988 260.542 153.847C261.766 153.73 264.166 153.471 265.837 153.282C267.532 153.071 270.285 152.741 271.956 152.553C273.65 152.365 276.71 151.988 278.781 151.753C280.852 151.494 283.182 151.211 283.958 151.141C284.735 151.047 285.747 150.929 286.194 150.858C286.641 150.811 287.606 150.717 288.312 150.647C289.018 150.576 291.254 150.341 293.254 150.082C295.254 149.846 297.537 149.588 298.314 149.493C300.926 149.258 301.797 149.07 302.173 148.693C302.503 148.364 302.526 147.752 302.362 143.257C302.103 135.444 302.503 115.323 303.138 104.897C303.256 102.897 303.421 99.7668 303.491 97.9547C303.632 94.7306 304.338 85.3172 304.786 80.8928C304.903 79.6691 305.068 77.8099 305.139 76.7744C305.28 74.7035 306.08 67.5963 306.433 65.0076C306.551 64.0898 306.715 62.6778 306.786 61.8306C306.927 60.1597 307.492 55.9471 307.868 53.735C308.245 51.6876 308.457 51.7346 302.197 52.4406Z" fill="#0A0A0B"/>
</svg>
