<svg width="97" height="19" viewBox="0 0 97 19" fill="none" xmlns="http://www.w3.org/2000/svg">
<path d="M15.39 0V17.99H11.68L4.49 7.61H4.38V17.99H0V0H3.76L10.88 10.37H11.03V0H15.39Z" fill="#001028"/>
<path d="M17.3906 17.99V0H29.7406V3.53H21.7706V7.22H28.9606V10.76H21.7706V17.99H17.4006H17.3906Z" fill="#001028"/>
<path d="M30.5898 3.53V0H45.8798V3.53H40.3998V17.99H36.0898V3.53H30.5998H30.5898Z" fill="#001028"/>
<path d="M45.8516 17.9896V4.49957H50.0416V6.95957H50.1816C50.4316 6.06957 50.8316 5.40957 51.3916 4.96957C51.9516 4.52957 52.6016 4.30957 53.3416 4.30957C53.5416 4.30957 53.7516 4.31957 53.9616 4.34957C54.1716 4.36957 54.3716 4.40957 54.5516 4.45957V8.18957C54.3416 8.11957 54.0716 8.05957 53.7416 8.01957C53.4116 7.97957 53.1216 7.95957 52.8616 7.95957C52.3516 7.95957 51.8916 8.06957 51.4716 8.29957C51.0616 8.51957 50.7416 8.83957 50.5116 9.23957C50.2816 9.63957 50.1716 10.1096 50.1716 10.6496V17.9796H45.8516V17.9896Z" fill="#001028"/>
<path d="M58.8797 18.2203C58.0097 18.2203 57.2497 18.0803 56.5797 17.7903C55.9097 17.5003 55.3897 17.0603 54.9997 16.4703C54.6197 15.8803 54.4297 15.1403 54.4297 14.2503C54.4297 13.5003 54.5597 12.8703 54.8297 12.3503C55.0997 11.8303 55.4597 11.4203 55.9297 11.0903C56.3997 10.7703 56.9297 10.5203 57.5397 10.3603C58.1497 10.1903 58.7897 10.0803 59.4797 10.0203C60.2497 9.95031 60.8697 9.88031 61.3397 9.80031C61.8097 9.72031 62.1497 9.60031 62.3597 9.46031C62.5797 9.31031 62.6897 9.09031 62.6897 8.82031V8.78031C62.6897 8.33031 62.5297 7.98031 62.2197 7.73031C61.9097 7.48031 61.4897 7.36031 60.9597 7.36031C60.3897 7.36031 59.9297 7.48031 59.5797 7.73031C59.2297 7.98031 59.0097 8.32031 58.9197 8.75031L54.9397 8.61031C55.0597 7.79031 55.3597 7.06031 55.8497 6.41031C56.3397 5.76031 57.0197 5.25031 57.8797 4.88031C58.7497 4.51031 59.7797 4.32031 60.9997 4.32031C61.8697 4.32031 62.6597 4.42031 63.3897 4.63031C64.1197 4.83031 64.7597 5.12031 65.2997 5.51031C65.8397 5.89031 66.2597 6.36031 66.5497 6.92031C66.8497 7.48031 66.9997 8.11031 66.9997 8.83031V18.0003H62.9397V16.1203H62.8297C62.5897 16.5803 62.2797 16.9603 61.8997 17.2803C61.5297 17.6003 61.0897 17.8303 60.5797 17.9903C60.0797 18.1503 59.5097 18.2303 58.8797 18.2303V18.2203ZM60.2097 15.4103C60.6797 15.4103 61.0897 15.3203 61.4597 15.1303C61.8397 14.9403 62.1397 14.6803 62.3597 14.3603C62.5797 14.0303 62.6997 13.6403 62.6997 13.2003V11.9203C62.5797 11.9803 62.4297 12.0403 62.2497 12.1003C62.0797 12.1503 61.8897 12.2003 61.6797 12.2503C61.4697 12.3003 61.2597 12.3403 61.0397 12.3703C60.8197 12.4103 60.6097 12.4403 60.4097 12.4703C59.9997 12.5303 59.6597 12.6303 59.3697 12.7703C59.0897 12.9003 58.8697 13.0803 58.7197 13.3003C58.5697 13.5103 58.4997 13.7603 58.4997 14.0603C58.4997 14.5103 58.6597 14.8403 58.9797 15.0803C59.2997 15.3103 59.7097 15.4303 60.2097 15.4303V15.4103Z" fill="#001028"/>
<path d="M73.8302 18.19C72.8302 18.19 71.9202 17.93 71.1002 17.42C70.2802 16.91 69.6302 16.13 69.1402 15.1C68.6502 14.07 68.4102 12.79 68.4102 11.26C68.4102 9.73 68.6602 8.37 69.1702 7.34C69.6802 6.32 70.3402 5.56 71.1602 5.06C71.9802 4.57 72.8702 4.32 73.8202 4.32C74.5302 4.32 75.1402 4.44 75.6502 4.69C76.1602 4.93 76.5702 5.24 76.9002 5.62C77.2302 6 77.4802 6.4 77.6502 6.81H77.7402V0H82.0602V17.99H77.7902V15.8H77.6602C77.4802 16.22 77.2201 16.61 76.8801 16.97C76.5401 17.33 76.1202 17.63 75.6202 17.85C75.1202 18.07 74.5301 18.18 73.8401 18.18L73.8302 18.19ZM75.3302 14.84C75.8502 14.84 76.3002 14.69 76.6702 14.4C77.0402 14.1 77.3302 13.68 77.5302 13.14C77.7302 12.6 77.8302 11.97 77.8302 11.24C77.8302 10.51 77.7302 9.87 77.5302 9.33C77.3402 8.8 77.0502 8.39 76.6702 8.1C76.3002 7.81 75.8502 7.67 75.3302 7.67C74.8102 7.67 74.3402 7.82 73.9702 8.11C73.6002 8.4 73.3202 8.82 73.1202 9.35C72.9302 9.88 72.8401 10.51 72.8401 11.24C72.8401 11.97 72.9401 12.6 73.1301 13.14C73.3201 13.68 73.6002 14.1 73.9702 14.4C74.3402 14.69 74.7902 14.84 75.3302 14.84V14.84Z" fill="#001028"/>
<path d="M90.3717 18.2501C88.9517 18.2501 87.7317 17.9701 86.7017 17.4201C85.6817 16.8601 84.8917 16.0601 84.3317 15.0201C83.7817 13.9801 83.5117 12.7401 83.5117 11.3001C83.5117 9.86008 83.7917 8.69008 84.3417 7.65008C84.8917 6.60008 85.6717 5.79008 86.6817 5.21008C87.6917 4.62008 88.8717 4.33008 90.2417 4.33008C91.2117 4.33008 92.0917 4.48008 92.8917 4.78008C93.6917 5.08008 94.3817 5.52008 94.9717 6.11008C95.5517 6.70008 96.0117 7.42008 96.3317 8.28008C96.6517 9.14008 96.8217 10.1201 96.8217 11.2201V12.2901H85.0317V9.79008H92.8017C92.8017 9.33008 92.6917 8.93008 92.4717 8.57008C92.2617 8.21008 91.9717 7.93008 91.6017 7.74008C91.2417 7.54008 90.8117 7.43008 90.3417 7.43008C89.8717 7.43008 89.4217 7.54008 89.0417 7.76008C88.6617 7.97008 88.3517 8.26008 88.1317 8.63008C87.9117 8.99008 87.7917 9.41008 87.7817 9.87008V12.4101C87.7817 12.9601 87.8917 13.4401 88.1117 13.8601C88.3317 14.2701 88.6417 14.5901 89.0417 14.8201C89.4417 15.0501 89.9217 15.1601 90.4717 15.1601C90.8517 15.1601 91.2017 15.1101 91.5117 15.0001C91.8217 14.8901 92.0917 14.7401 92.3117 14.5301C92.5317 14.3301 92.7017 14.0701 92.8117 13.7701L96.7817 13.8801C96.6217 14.7601 96.2517 15.5301 95.6917 16.1901C95.1417 16.8401 94.4117 17.3501 93.5117 17.7101C92.6117 18.0701 91.5717 18.2501 90.3817 18.2501H90.3717Z" fill="#001028"/>
</svg>
