<svg width="125" height="32" viewBox="0 0 125 32" fill="none" xmlns="http://www.w3.org/2000/svg">
<path opacity="0.8" d="M11.0351 2.22163C11.6486 2.22163 12.1459 1.7243 12.1459 1.11081C12.1459 0.497329 11.6486 0 11.0351 0C10.4216 0 9.92432 0.497329 9.92432 1.11081C9.92432 1.7243 10.4216 2.22163 11.0351 2.22163Z" fill="#03FF77"/>
<path opacity="0.8" d="M16.0029 2.22163C16.6164 2.22163 17.1137 1.7243 17.1137 1.11081C17.1137 0.497329 16.6164 0 16.0029 0C15.3894 0 14.8921 0.497329 14.8921 1.11081C14.8921 1.7243 15.3894 2.22163 16.0029 2.22163Z" fill="#03FF77"/>
<path opacity="0.8" d="M20.9648 2.22163C21.5783 2.22163 22.0756 1.7243 22.0756 1.11081C22.0756 0.497329 21.5783 0 20.9648 0C20.3513 0 19.854 0.497329 19.854 1.11081C19.854 1.7243 20.3513 2.22163 20.9648 2.22163Z" fill="#03FF77"/>
<path opacity="0.8" d="M25.9267 7.18369C26.5402 7.18369 27.0375 6.68636 27.0375 6.07288C27.0375 5.45939 26.5402 4.96206 25.9267 4.96206C25.3132 4.96206 24.8159 5.45939 24.8159 6.07288C24.8159 6.68636 25.3132 7.18369 25.9267 7.18369Z" fill="#03FF77"/>
<path opacity="0.8" d="M1.11081 12.1457C1.7243 12.1457 2.22163 11.6484 2.22163 11.0349C2.22163 10.4214 1.7243 9.92407 1.11081 9.92407C0.497328 9.92407 0 10.4214 0 11.0349C0 11.6484 0.497328 12.1457 1.11081 12.1457Z" fill="#03FF77"/>
<path opacity="0.8" d="M1.11081 17.1139C1.7243 17.1139 2.22163 16.6165 2.22163 16.0031C2.22163 15.3896 1.7243 14.8922 1.11081 14.8922C0.497328 14.8922 0 15.3896 0 16.0031C0 16.6165 0.497328 17.1139 1.11081 17.1139Z" fill="#03FF77"/>
<path opacity="0.8" d="M1.11081 22.0759C1.7243 22.0759 2.22163 21.5786 2.22163 20.9651C2.22163 20.3516 1.7243 19.8543 1.11081 19.8543C0.497328 19.8543 0 20.3516 0 20.9651C0 21.5786 0.497328 22.0759 1.11081 22.0759Z" fill="#03FF77"/>
<path opacity="0.8" d="M25.9267 27.038C26.5402 27.038 27.0375 26.5406 27.0375 25.9271C27.0375 25.3137 26.5402 24.8163 25.9267 24.8163C25.3132 24.8163 24.8159 25.3137 24.8159 25.9271C24.8159 26.5406 25.3132 27.038 25.9267 27.038Z" fill="#03FF77"/>
<path opacity="0.8" d="M6.07322 27.038C6.6867 27.038 7.18403 26.5406 7.18403 25.9271C7.18403 25.3137 6.6867 24.8163 6.07322 24.8163C5.45973 24.8163 4.9624 25.3137 4.9624 25.9271C4.9624 26.5406 5.45973 27.038 6.07322 27.038Z" fill="#03FF77"/>
<path opacity="0.8" d="M30.8891 22.0759C31.5026 22.0759 31.9999 21.5786 31.9999 20.9651C31.9999 20.3516 31.5026 19.8543 30.8891 19.8543C30.2756 19.8543 29.7783 20.3516 29.7783 20.9651C29.7783 21.5786 30.2756 22.0759 30.8891 22.0759Z" fill="#03FF77"/>
<path opacity="0.8" d="M6.07322 7.18369C6.6867 7.18369 7.18403 6.68636 7.18403 6.07288C7.18403 5.45939 6.6867 4.96206 6.07322 4.96206C5.45973 4.96206 4.9624 5.45939 4.9624 6.07288C4.9624 6.68636 5.45973 7.18369 6.07322 7.18369Z" fill="#03FF77"/>
<path opacity="0.8" d="M30.8891 12.1457C31.5026 12.1457 31.9999 11.6484 31.9999 11.0349C31.9999 10.4214 31.5026 9.92407 30.8891 9.92407C30.2756 9.92407 29.7783 10.4214 29.7783 11.0349C29.7783 11.6484 30.2756 12.1457 30.8891 12.1457Z" fill="#03FF77"/>
<path opacity="0.8" d="M11.0351 32C11.6486 32 12.1459 31.5027 12.1459 30.8892C12.1459 30.2757 11.6486 29.7784 11.0351 29.7784C10.4216 29.7784 9.92432 30.2757 9.92432 30.8892C9.92432 31.5027 10.4216 32 11.0351 32Z" fill="#03FF77"/>
<path opacity="0.8" d="M16.0029 32C16.6164 32 17.1137 31.5027 17.1137 30.8892C17.1137 30.2757 16.6164 29.7784 16.0029 29.7784C15.3894 29.7784 14.8921 30.2757 14.8921 30.8892C14.8921 31.5027 15.3894 32 16.0029 32Z" fill="#03FF77"/>
<path opacity="0.8" d="M20.9648 32C21.5783 32 22.0756 31.5027 22.0756 30.8892C22.0756 30.2757 21.5783 29.7784 20.9648 29.7784C20.3513 29.7784 19.854 30.2757 19.854 30.8892C19.854 31.5027 20.3513 32 20.9648 32Z" fill="#03FF77"/>
<path opacity="0.8" d="M11.0351 22.0759C11.6486 22.0759 12.1459 21.5786 12.1459 20.9651C12.1459 20.3516 11.6486 19.8543 11.0351 19.8543C10.4216 19.8543 9.92432 20.3516 9.92432 20.9651C9.92432 21.5786 10.4216 22.0759 11.0351 22.0759Z" fill="#03FF77"/>
<path opacity="0.8" d="M20.9648 22.0759C21.5783 22.0759 22.0756 21.5786 22.0756 20.9651C22.0756 20.3516 21.5783 19.8543 20.9648 19.8543C20.3513 19.8543 19.854 20.3516 19.854 20.9651C19.854 21.5786 20.3513 22.0759 20.9648 22.0759Z" fill="#03FF77"/>
<path opacity="0.8" d="M11.0351 17.1139C11.6486 17.1139 12.1459 16.6165 12.1459 16.0031C12.1459 15.3896 11.6486 14.8922 11.0351 14.8922C10.4216 14.8922 9.92432 15.3896 9.92432 16.0031C9.92432 16.6165 10.4216 17.1139 11.0351 17.1139Z" fill="#03FF77"/>
<path opacity="0.8" d="M11.0351 12.1457C11.6486 12.1457 12.1459 11.6484 12.1459 11.0349C12.1459 10.4214 11.6486 9.92407 11.0351 9.92407C10.4216 9.92407 9.92432 10.4214 9.92432 11.0349C9.92432 11.6484 10.4216 12.1457 11.0351 12.1457Z" fill="#03FF77"/>
<path opacity="0.8" d="M20.9648 12.1457C21.5783 12.1457 22.0756 11.6484 22.0756 11.0349C22.0756 10.4214 21.5783 9.92407 20.9648 9.92407C20.3513 9.92407 19.854 10.4214 19.854 11.0349C19.854 11.6484 20.3513 12.1457 20.9648 12.1457Z" fill="#03FF77"/>
<path d="M6.07271 12.8293C7.06373 12.8293 7.8671 12.0259 7.8671 11.0349C7.8671 10.0439 7.06373 9.24051 6.07271 9.24051C5.0817 9.24051 4.27832 10.0439 4.27832 11.0349C4.27832 12.0259 5.0817 12.8293 6.07271 12.8293Z" fill="#03FF77"/>
<path d="M6.07271 17.7975C7.06373 17.7975 7.8671 16.9941 7.8671 16.0031C7.8671 15.0121 7.06373 14.2087 6.07271 14.2087C5.0817 14.2087 4.27832 15.0121 4.27832 16.0031C4.27832 16.9941 5.0817 17.7975 6.07271 17.7975Z" fill="#03FF77"/>
<path d="M6.07271 22.7595C7.06373 22.7595 7.8671 21.9561 7.8671 20.9651C7.8671 19.9741 7.06373 19.1707 6.07271 19.1707C5.0817 19.1707 4.27832 19.9741 4.27832 20.9651C4.27832 21.9561 5.0817 22.7595 6.07271 22.7595Z" fill="#03FF77"/>
<path d="M11.0346 7.86729C12.0256 7.86729 12.829 7.06391 12.829 6.0729C12.829 5.08188 12.0256 4.2785 11.0346 4.2785C10.0436 4.2785 9.24023 5.08188 9.24023 6.0729C9.24023 7.06391 10.0436 7.86729 11.0346 7.86729Z" fill="#03FF77"/>
<path d="M11.0346 27.7215C12.0256 27.7215 12.829 26.9182 12.829 25.9271C12.829 24.9361 12.0256 24.1328 11.0346 24.1328C10.0436 24.1328 9.24023 24.9361 9.24023 25.9271C9.24023 26.9182 10.0436 27.7215 11.0346 27.7215Z" fill="#03FF77"/>
<path d="M16.0029 7.86729C16.9939 7.86729 17.7973 7.06391 17.7973 6.0729C17.7973 5.08188 16.9939 4.2785 16.0029 4.2785C15.0119 4.2785 14.2085 5.08188 14.2085 6.0729C14.2085 7.06391 15.0119 7.86729 16.0029 7.86729Z" fill="#03FF77"/>
<path d="M16.0029 27.7215C16.9939 27.7215 17.7973 26.9182 17.7973 25.9271C17.7973 24.9361 16.9939 24.1328 16.0029 24.1328C15.0119 24.1328 14.2085 24.9361 14.2085 25.9271C14.2085 26.9182 15.0119 27.7215 16.0029 27.7215Z" fill="#03FF77"/>
<path d="M20.9648 7.86729C21.9558 7.86729 22.7592 7.06391 22.7592 6.0729C22.7592 5.08188 21.9558 4.2785 20.9648 4.2785C19.9738 4.2785 19.1704 5.08188 19.1704 6.0729C19.1704 7.06391 19.9738 7.86729 20.9648 7.86729Z" fill="#03FF77"/>
<path d="M20.9648 27.7215C21.9558 27.7215 22.7592 26.9182 22.7592 25.9271C22.7592 24.9361 21.9558 24.1328 20.9648 24.1328C19.9738 24.1328 19.1704 24.9361 19.1704 25.9271C19.1704 26.9182 19.9738 27.7215 20.9648 27.7215Z" fill="#03FF77"/>
<path d="M25.9267 12.8293C26.9177 12.8293 27.7211 12.0259 27.7211 11.0349C27.7211 10.0439 26.9177 9.24051 25.9267 9.24051C24.9357 9.24051 24.1323 10.0439 24.1323 11.0349C24.1323 12.0259 24.9357 12.8293 25.9267 12.8293Z" fill="#03FF77"/>
<path d="M25.9267 12.8293C26.9177 12.8293 27.7211 12.0259 27.7211 11.0349C27.7211 10.0439 26.9177 9.24051 25.9267 9.24051C24.9357 9.24051 24.1323 10.0439 24.1323 11.0349C24.1323 12.0259 24.9357 12.8293 25.9267 12.8293Z" fill="#03FF77"/>
<path d="M25.9267 22.7595C26.9177 22.7595 27.7211 21.9561 27.7211 20.9651C27.7211 19.9741 26.9177 19.1707 25.9267 19.1707C24.9357 19.1707 24.1323 19.9741 24.1323 20.9651C24.1323 21.9561 24.9357 22.7595 25.9267 22.7595Z" fill="#03FF77"/>
<path d="M110.998 18.6085C110.998 17.2708 111.294 16.0573 111.886 14.9681C112.498 13.8597 113.339 12.9806 114.409 12.3309C115.479 11.6811 116.683 11.3563 118.02 11.3563C119.377 11.3563 120.572 11.6811 121.604 12.3309C122.636 12.9806 123.429 13.8788 123.983 15.0254C124.556 16.1529 124.843 17.4428 124.843 18.8952V19.6118H114.151C114.265 20.701 114.714 21.6088 115.498 22.335C116.281 23.0611 117.304 23.4242 118.565 23.4242C119.272 23.4242 119.979 23.2905 120.686 23.0229C121.413 22.7554 122.014 22.3827 122.492 21.905L123.868 23.8829C123.18 24.5326 122.349 25.0295 121.374 25.3734C120.4 25.7174 119.358 25.8894 118.25 25.8894C116.874 25.8894 115.632 25.5932 114.523 25.0008C113.434 24.3893 112.574 23.5293 111.944 22.4209C111.313 21.3126 110.998 20.0418 110.998 18.6085ZM118.02 13.8215C116.836 13.8215 115.909 14.1941 115.24 14.9394C114.571 15.6656 114.198 16.516 114.122 17.4906H121.919C121.9 16.8982 121.747 16.3249 121.46 15.7707C121.174 15.1974 120.744 14.7292 120.17 14.3661C119.597 14.003 118.88 13.8215 118.02 13.8215Z" fill="#FBFFFC"/>
<path d="M96.8677 11.7002H100.078L104.12 22.077L108.162 11.7002H111.401L105.754 25.5454H102.515L96.8677 11.7002Z" fill="#FBFFFC"/>
<path d="M89.147 25.8894C87.9813 25.8894 87.0927 25.5836 86.4811 24.9721C85.8887 24.3606 85.5925 23.4815 85.5925 22.3349V14.3374H83.2993V11.7002H85.5925V7.91644H88.6023V11.7002H91.4115V14.3374H88.6023V21.5896C88.6023 22.0865 88.717 22.4878 88.9463 22.7936C89.1756 23.0802 89.5005 23.2235 89.9209 23.2235C90.1885 23.2235 90.4465 23.1758 90.6949 23.0802C90.9624 22.9847 91.1535 22.87 91.2682 22.7362L91.9848 25.0008C91.3542 25.5932 90.4082 25.8894 89.147 25.8894Z" fill="#FBFFFC"/>
<path d="M79.5045 16.8886C79.5045 15.8567 79.2656 15.1209 78.7878 14.6814C78.3101 14.2419 77.6221 14.0221 76.724 14.0221C75.9978 14.0221 75.3194 14.2037 74.6887 14.5667C74.0581 14.9298 73.5517 15.3694 73.1695 15.8853V25.5454H70.1597V11.7002H73.1695V13.5921C73.6855 12.9806 74.3734 12.4551 75.2334 12.0156C76.0933 11.576 77.0297 11.3563 78.0425 11.3563C79.514 11.3563 80.6224 11.7385 81.3677 12.5029C82.1321 13.2673 82.5143 14.3661 82.5143 15.7993V25.5454H79.5045V16.8886Z" fill="#FBFFFC"/>
<path d="M55.02 18.6085C55.02 17.2708 55.3162 16.0573 55.9086 14.9681C56.5202 13.8597 57.361 12.9806 58.4312 12.3309C59.5013 11.6811 60.7052 11.3563 62.0429 11.3563C63.3997 11.3563 64.5941 11.6811 65.6261 12.3309C66.658 12.9806 67.4511 13.8788 68.0053 15.0254C68.5786 16.1529 68.8652 17.4428 68.8652 18.8952V19.6118H58.1732C58.2878 20.7011 58.7369 21.6088 59.5204 22.335C60.3039 23.0611 61.3263 23.4242 62.5876 23.4242C63.2946 23.4242 64.0017 23.2905 64.7088 23.0229C65.435 22.7554 66.0369 22.3827 66.5147 21.905L67.8906 23.8829C67.2026 24.5326 66.3714 25.0295 65.3967 25.3734C64.4221 25.7174 63.3806 25.8894 62.2723 25.8894C60.8963 25.8894 59.6542 25.5932 58.5458 25.0008C57.4565 24.3893 56.5966 23.5293 55.966 22.4209C55.3353 21.3126 55.02 20.0418 55.02 18.6085ZM62.0429 13.8215C60.8581 13.8215 59.9313 14.1941 59.2624 14.9394C58.5936 15.6656 58.2209 16.516 58.1445 17.4906H65.9414C65.9223 16.8982 65.7694 16.3249 65.4827 15.7707C65.1961 15.1974 64.7661 14.7292 64.1928 14.3661C63.6195 14.003 62.9029 13.8215 62.0429 13.8215Z" fill="#FBFFFC"/>
<path d="M47.0327 25.8894C45.16 25.8894 43.4592 25.4785 41.9304 24.6568C40.4016 23.816 39.1976 22.6407 38.3186 21.131C37.4395 19.6213 37 17.911 37 16C37 14.089 37.4395 12.3786 38.3186 10.869C39.1976 9.35926 40.4016 8.19355 41.9304 7.37183C43.4592 6.53099 45.16 6.11057 47.0327 6.11057C48.8291 6.11057 50.3579 6.51188 51.6191 7.31449C52.8804 8.098 53.9123 9.12994 54.715 10.4103L51.8485 11.8722C51.3707 11.0505 50.6923 10.3816 49.8132 9.86568C48.9533 9.34971 48.0265 9.09172 47.0327 9.09172C45.7906 9.09172 44.6631 9.38793 43.6503 9.98034C42.6566 10.5727 41.873 11.3945 41.2997 12.4455C40.7264 13.4966 40.4398 14.6814 40.4398 16C40.4398 17.3186 40.7264 18.5034 41.2997 19.5544C41.873 20.6055 42.6566 21.4272 43.6503 22.0196C44.6631 22.612 45.7906 22.9082 47.0327 22.9082C48.0456 22.9082 48.982 22.6503 49.8419 22.1343C50.7019 21.6183 51.3707 20.9495 51.8485 20.1277L54.715 21.5897C52.8804 24.4562 50.3197 25.8894 47.0327 25.8894Z" fill="#FBFFFC"/>
<path d="M92.9214 11.7002H95.9312V25.5454H92.9214V11.7002Z" fill="#FBFFFC"/>
<path d="M94.4262 10.009C95.4172 10.009 96.2206 9.2056 96.2206 8.21459C96.2206 7.22357 95.4172 6.4202 94.4262 6.4202C93.4352 6.4202 92.6318 7.22357 92.6318 8.21459C92.6318 9.2056 93.4352 10.009 94.4262 10.009Z" fill="#FBFFFC"/>
</svg>
